<svg width="90" height="59.23839772950548" xmlns="http://www.w3.org/2000/svg">
 <defs>
  <linearGradient y2="50.028%" y1="50.028%" x2="103.223%" x1="10.956%" id="a">
   <stop stop-color="#1885c8" offset="0"/>
   <stop stop-color="#1881c3" offset="0.14"/>
   <stop stop-color="#1a74b3" offset="0.32"/>
   <stop stop-color="#1b6099" offset="0.52"/>
   <stop stop-color="#1e4475" offset="0.73"/>
   <stop stop-color="#212047" offset="0.96"/>
   <stop stop-color="#22183d" offset="1"/>
  </linearGradient>
  <linearGradient y2="46.383%" y1="53.534%" x2="107.123%" x1="2.641%" id="b">
   <stop stop-color="#52bce8" offset="0.24"/>
   <stop stop-color="#3f88b9" offset="1"/>
  </linearGradient>
  <linearGradient y2="49.934%" y1="49.934%" x1="0%" id="c">
   <stop stop-color="#52bce8" offset="0.54"/>
   <stop stop-color="#49a4d3" offset="1"/>
  </linearGradient>
  <linearGradient y2="43.296%" y1="52.606%" x2="65.118%" x1="37.085%" id="d">
   <stop stop-color="#3a78ac" offset="0"/>
   <stop stop-color="#34689e" offset="0.29"/>
   <stop stop-color="#253e78" offset="0.86"/>
   <stop stop-color="#21336e" offset="1"/>
  </linearGradient>
  <linearGradient y2="45.052%" y1="59.55%" x2="104.475%" x1="-1.62%" id="e">
   <stop stop-color="#52bce8" offset="0"/>
   <stop stop-color="#51b9e6" offset="0.25"/>
   <stop stop-color="#4eb0de" offset="0.41"/>
   <stop stop-color="#48a1d0" offset="0.56"/>
   <stop stop-color="#418cbd" offset="0.69"/>
   <stop stop-color="#3977ab" offset="0.78"/>
   <stop stop-color="#33669c" offset="0.85"/>
   <stop stop-color="#243b75" offset="0.98"/>
   <stop stop-color="#21336e" offset="1"/>
  </linearGradient>
 </defs>
 <g>
  <title>Layer 1</title>
  <g id="svg_1" fill-rule="evenodd" fill="none">
   <g id="svg_2" fill-rule="nonzero">
    <path id="svg_3" fill="#fff" d="m49.354,37.724c1.12,-0.264 2.143,-0.865 3.289,-0.772c1.894,0.292 2.791,-0.078 4.238,-1.015c1.061,0.608 2.322,1.876 4.912,1.848c0.833,0.054 1.8,-0.357 1.605,-1.238c-0.052,-0.764 1.444,-0.433 1.539,-1.407c0.167,-0.582 0.043,-0.558 -0.865,-1.106c-1.513,-0.828 -1.487,-2.413 -2.627,-3.438c-0.125,-0.15 -0.495,-0.418 -0.506,-0.606c-3.799,-10.29 0.68,-6.779 -7.948,-16.49c-2.454,-1.821 -6.041,-6.011 -9.228,-5.762c-2.893,0.093 -3.626,1.731 -5.758,2.426c-2.69,0.954 -4.303,1.227 -6.467,3.246c-1.401,1.177 -3.263,-0.277 -5.254,1.82c-4.219,4.257 -4.692,0.255 -11.618,5.666c-3.58,3.112 -8.527,0.866 -4.54,-3.136c2.022,-1.444 4.582,-3.22 3.637,-5.977c-0.32,-2.065 -3.285,-2.636 -5.153,-2.933c-1.08,-0.216 -2.927,-1.638 -3.537,-2.023c-1.83,2.053 -0.915,6.8 3.027,7.282c0.163,0.01 0.293,0.14 0.303,0.303a0.613,0.613 0 0 1 -0.1,0.405c-2.826,2.227 -3.433,3.136 -3.533,5.665c-0.216,3.463 2.636,6.086 6.27,5.967c0.579,0.01 1.157,-0.024 1.73,-0.102c0.1,0 0.201,0 0.201,0.102c0.286,1.565 0.407,3.478 0.91,4.047c0.1,0.201 0.1,0.405 -0.101,0.504c-1.157,1.139 -3.622,-0.145 -4.244,1.922c-0.387,0.844 -0.294,1.894 -1.211,2.327c-0.649,-0.143 -0.822,-1.104 -1.72,-1.113s-2.378,0.662 -3.026,2.125c-0.692,0.474 -1.393,0.152 -1.717,1.212c-0.147,-0.01 -0.227,0.56 -0.201,0.81a2.921,2.921 0 0 1 -0.404,1.315c-0.666,0.842 0.056,1.872 1.111,2.024c0.78,0.06 1.274,0.368 1.514,0.1c0.099,0 0.099,-0.1 0.2,-0.1c0.217,-0.206 0.383,-0.056 0.606,0c0.45,0.024 1.103,0.374 1.617,0.303a0.37,0.37 0 0 1 0.303,0.102c1.514,-0.013 1.994,-0.617 2.525,-1.418c-0.028,-0.36 0.26,-0.606 0.405,-0.909c0.138,-0.145 0.238,-0.216 0.404,-0.203c0.262,0.076 0.865,0.164 1.012,0.203c2.314,0.204 2.919,-2.164 4.757,-2.428c0.454,0 1.297,0.089 3.13,0.303c1.203,0.095 2.379,-0.78 3.538,-1.415c0.519,-0.26 0.97,-0.405 1.414,-1.013c0.545,-0.433 1.2,-3.104 1.92,-3.134c1.477,-0.03 2.874,-0.515 4.344,-0.506c1.805,-0.08 3.64,0.422 5.254,-0.202c0.06,0.022 0.415,-0.054 0.506,0.1c0.229,0.34 0.876,0.491 0.707,0.911c0,0.102 -0.203,0.201 -0.303,0.303c-0.333,0 -0.817,0.026 -1.111,0.405c-0.147,0.134 -0.558,0.173 -0.71,0c-0.966,0.086 -3.701,-0.318 -4.04,1.112c0.257,1.108 1.167,3.883 3.027,3.642c0.101,0 0.302,0.1 0.302,0.202c0.707,1.415 1.92,2.326 3.027,2.326c1.107,0 3.862,-0.989 5.961,-2.023l0.896,0c1.282,-0.12 1.794,-0.463 2.525,-1.922c0.97,-0.97 0.186,1.984 3.265,1.368l-0.009,-0.005zm-1.946,-6.52c-0.302,0.303 -0.605,0.404 -1.01,1.01c-0.706,-0.303 -0.808,-1.214 -0.908,-1.618c0.606,-0.1 1.918,-0.405 2.627,-0.505c-0.406,0.405 -0.61,0.606 -0.71,1.113l0.001,0z"/>
    <path id="svg_4" fill="#db0a40" d="m63.2,34.476c-1.313,-0.707 -1.819,-2.223 -2.628,-3.334c-2.115,-2.188 -2.474,-5.93 -3.027,-8.995c-0.558,-2.975 -3.1,-5.176 -4.862,-7.476c-1.563,-1.276 -5.644,-5.142 -7.568,-5.76c-2.541,-1.057 -4.758,0.94 -6.873,1.92c-1.717,0.707 -3.536,0.908 -5.051,2.223c-2.38,3.053 -3.809,0.61 -6.57,3.027c-4.109,4.307 -5.666,0.516 -11.317,5.558c-1.513,0.908 -2.93,1.819 -4.757,1.717c-2.904,-0.136 -3.893,-4.039 -1.618,-5.76c1.585,-1.773 5.478,-3.595 3.542,-6.462c-2.01,-1.793 -4.376,-1.03 -6.768,-3.027c-1.103,1.73 0.307,4.075 2.121,4.648c0.744,0.463 2.474,-0.274 2.829,0.802c-0.766,1.533 -2.857,2.364 -3.839,3.842c-2.445,2.824 -0.03,7.453 3.434,7.67c1.28,0.415 2.913,-0.632 3.74,-0.202c0.101,1.01 0,1.92 0.203,2.83c0.093,0.995 1.226,2.063 0.605,3.028a5.1,5.1 0 0 1 -3.633,1.226c-0.69,0.793 -0.806,1.695 -1.213,2.627c-0.504,0.908 -1.514,1.312 -2.223,1.716c-0.467,0.712 -0.932,1.499 -1.92,1.618c-0.606,0.707 -0.708,1.617 -0.909,2.527c2.528,0.668 3.069,0.329 4.446,-1.82c0.506,-0.504 1.214,-0.1 1.718,0c1.435,-0.171 2.506,-1.131 3.537,-2.02c3.677,-0.962 3.642,1.447 7.88,-1.314c0.71,-0.303 1.013,-1.112 1.315,-1.72c0.355,-0.676 1.335,-1.98 0.102,-2.321c-3.172,6.421 -8.695,1.195 -12.936,6.053c-0.649,0.18 -0.145,-0.83 0,-1.011c3.043,-4.433 9.963,-0.53 12.326,-6.27c0.415,-0.883 0.18,-4.398 1.213,-4.346c0.102,0 0.405,0.101 0.405,0.302c-0.982,4.286 -0.333,5.615 4.243,4.865c1.565,-0.454 6.055,1.144 5.962,-1.01c0,-0.404 -0.405,-0.605 0,-0.908c0.1,-0.101 0.404,0 0.504,0.1c0.285,1.73 1.803,2.999 3.243,3.74c2.905,1.976 1.73,4.556 -1.617,4.445c-1.112,-0.605 -1.415,-1.718 -2.223,-2.626c-0.945,-0.829 -2.236,-0.433 -3.335,-0.204c-0.545,0.824 0.75,1.806 1.01,2.63c0.506,0.302 1.213,-0.204 1.618,0.402s0.605,1.213 1.213,1.617c1.751,1.68 5.406,-1.271 7.274,-1.414c1.633,0.177 2.38,-1.31 2.93,-2.528c0.922,-1.682 -1.528,-3.345 -1.716,-4.85c-0.558,-0.153 -1.298,-0.59 -1.72,0c0.31,0.753 2.044,3.505 1.92,4.347c-0.226,0.607 -0.741,2.017 -1.513,1.92c0.203,-0.708 0.506,-1.514 0.506,-2.325c-0.368,-0.865 -1.992,-3.362 -2.121,-4.244c0.322,-0.854 1.98,-0.359 2.625,-1.213c0.71,-1.111 0.91,-2.223 1.114,-3.637a0.454,0.454 0 0 1 0.302,-0.305c0.984,0.634 -0.017,3.676 -0.607,4.346c-0.057,1.047 2.006,0.346 2.426,0c0.78,0.162 2.364,-0.616 2.727,-0.101a5.49,5.49 0 0 0 -1.01,2.021c-0.605,0.707 -1.615,1.213 -1.615,2.223c0.11,0.636 0.964,-0.39 1.01,0.404c-0.88,1.118 -0.77,1.388 -0.507,2.627c0.924,1.298 2.689,0.23 3.841,-0.1c1.946,-0.762 4.137,0.446 5.66,-1.616a1.34,1.34 0 0 1 1.01,0.605a5.565,5.565 0 0 0 4.344,1.719c0.662,-0.46 -0.785,-0.822 -1.01,-1.012c-0.707,-0.404 -1.618,-1.01 -1.819,-1.818c-0.266,-1.129 -1.081,-2.163 -1.617,-3.233c2.359,0.035 2.608,4.962 6.055,4.244c0.168,-0.116 0.151,-0.242 0.101,-0.404l-0.912,-0.203zm-16.976,-15.258c-0.102,0.101 -0.203,0.101 -0.404,0.101c-0.27,-1.02 -0.366,-2.086 -0.91,-2.931c-0.284,-0.277 -0.65,-0.638 -0.405,-1.112a0.482,0.482 0 0 1 0.607,-0.101c0.926,0.692 1.082,1.656 1.112,2.83c0.201,0.2 0.1,0.808 0,1.213zm8.285,14.248c-0.462,0.123 -0.937,0.19 -1.415,0.201l-0.1,0c-0.598,-0.551 0.65,-1.652 1.314,-1.617l0.302,0c0.37,0.154 0.275,1.129 -0.101,1.416m2.627,-5.861c-0.112,0.196 -0.285,0.711 -0.504,0.707c-0.218,-0.005 -0.313,0.032 -0.303,-0.201c-0.019,-0.68 -0.13,-1.514 -0.709,-1.92c-1.319,-2.052 -1.652,0.519 -2.121,0.2c-0.281,-0.57 0.162,-1.217 0.404,-1.716c0.113,-0.136 0.158,-0.294 0.303,-0.404c0.216,-1.244 1.351,-0.534 1.617,0.2c0.697,0.866 1.514,1.84 1.415,2.831c-0.102,-0.102 -0.102,0.102 -0.102,0.303m-51.232,9.297c0.707,-0.405 1.111,-1.112 1.414,-1.72c-0.216,-0.339 -0.48,-0.786 -1.01,-0.604c-0.48,0.37 -0.986,0.708 -1.513,1.01c-0.253,0.687 0.378,1.552 1.111,1.314m-2.223,0c-1.2,0.49 -0.564,1.97 -1.313,2.728c0,0.1 -0.203,0.303 0,0.405c0.504,0.1 0.909,0.302 1.514,0.404c0.27,-0.904 0.532,-1.91 0.707,-2.729c-0.203,-0.304 -0.506,-0.707 -0.91,-0.808m32.74,-2.223c0.405,0.504 0.405,1.21 0.91,1.615a2.174,2.174 0 0 0 1.718,-0.504c0.303,-0.203 -0.102,-0.505 -0.201,-0.808c-0.305,-0.404 -0.102,-1.213 -0.81,-1.213c-0.765,0.177 -1.604,-0.043 -2.324,0.201c0,0.305 0.606,0.305 0.707,0.71"/>
    <path id="svg_5" fill="url(#a)" d="m85.907,27.802c-0.05,-1.67 -0.725,-3.484 -1.855,-4.675l-0.052,-0.06c-0.578,2.28 -1.407,4.292 -3.788,7.916c-0.916,1.387 -2.542,1.448 -3.548,2.72c-0.238,-0.129 -0.169,-0.306 -0.476,0.022c1.268,-1.361 -0.182,-0.66 0.41,-1.316c2.213,-2.442 4.24,-4.642 5.096,-7.938c-0.361,0.452 -0.58,0.593 -0.943,1.05a51.68,51.68 0 0 0 1.036,-4.032l-0.39,-0.156c-1.355,4.58 -3.597,8.587 -7.697,11.337c-5.324,3.864 -0.829,2.571 0.068,1.772c-6.71,6.84 -21.564,11.238 -30.101,4.279c1.246,1.212 2.777,2.567 4.231,3.458c-0.885,-0.151 -1.515,-0.837 -2.35,-1.098c0.013,0.028 2.03,2.65 8.052,3.337c0.387,0.043 0.758,0.082 1.115,0.114c8.21,0.649 8.71,-0.819 14.44,-2.029c0.257,0.11 -1.847,1.195 -4.74,2.012c-4.57,1.668 -9.876,0.432 -13.748,0.03l0.017,0c0.089,0.044 0.69,0.32 3.771,1.42c-0.216,0.078 -1.223,0.216 -5.422,-1.582c10.303,5.933 21.392,1.442 30.497,-5.299c0,0.03 -0.013,0.073 -0.013,0.11c0.08,0.013 0.182,0.026 0.264,0.033c-0.05,0.144 -0.05,0.144 -0.756,0.985c1.537,-1.238 2.325,-3.16 3.953,-4.322c-0.833,1.67 -1.898,2.868 -3.881,4.804c0.15,-0.115 0.295,-0.238 0.433,-0.37c-2.998,2.797 -6.953,5.572 -13.09,7.029a8.432,8.432 0 0 0 1.314,-0.26c-0.777,0.216 -0.798,0.242 -1.127,0.35c0.203,-0.026 0.203,-0.026 1.262,-0.24c-0.617,0.303 -1.33,0.448 -3.053,0.798c10.215,-1.617 20.84,-9.552 21.07,-20.198l0.001,-0.001z"/>
    <path id="svg_6" fill="url(#b)" d="m75.557,41.77c-4.053,2.562 -8.536,4.798 -13.544,5.369c6.024,0.215 13.173,-4.12 17.067,-7.672c-1.166,0.775 -2.332,1.555 -3.523,2.302l0,0.001z"/>
    <path id="svg_7" fill="url(#c)" d="m69.053,42.453c-5.765,1.227 -6.092,2.692 -14.341,2.068c-0.65,0.199 -4.079,-0.011 -4.645,-0.197c0.028,0 0.294,0.116 0.523,0.208l-0.015,0c0.865,-0.11 6.57,1.12 8.392,0.876c2.365,0.162 9.786,-2.07 10.086,-2.955z"/>
    <path id="svg_8" fill="url(#d)" d="m81.918,21.635l-0.204,-0.088a52.916,52.916 0 0 1 -1.04,4.006c0.364,-0.456 0.584,-0.595 0.947,-1.044c-0.87,3.276 -2.894,5.462 -5.115,7.89c-0.595,0.644 0.87,-0.046 -0.413,1.308c0.309,-0.327 0.24,-0.15 0.478,-0.022c1.008,-1.265 2.642,-1.325 3.561,-2.704c2.39,-3.605 3.222,-5.602 3.8,-7.868a6.699,6.699 0 0 0 -2.014,-1.478z"/>
    <path id="svg_9" fill="url(#e)" d="m54.915,39.55c-3.784,-2.145 -1.041,-0.72 2.274,0.065c2.429,0.598 4.935,0.818 7.43,0.65c3.948,-1.519 7.322,-3.727 9.196,-5.822c-0.898,0.825 -5.34,2.06 -0.064,-1.78c4.086,-2.761 6.326,-6.782 7.676,-11.38a14.898,14.898 0 0 0 -3.277,-0.803c-1.58,3.78 -1.816,6.404 -5.32,8.493c-3.909,2.557 -1.462,1.901 -1.423,1.882c0.305,-0.122 0.595,-0.278 0.864,-0.465c-1.512,2.432 -4.142,3.984 -7.278,4.685c-0.1,0.981 -1.597,0.652 -1.538,1.411c0.192,0.884 -0.771,1.303 -1.603,1.242c-2.592,0.028 -3.846,-1.244 -4.907,-1.854c-1.654,1.103 -2.432,1.244 -4.514,1.012c-1.035,0.015 -1.978,0.543 -3.004,0.781c1.468,1.32 7.792,3.018 5.488,1.883zm19.945,-10.53c0.659,-1.443 2.188,-2.218 2.69,-3.961c-0.072,0.256 0.474,0.362 0.69,0.362c0.864,-0.148 0.885,-1.337 1.164,-1.585c-0.216,2.703 -2.041,4.917 -4.037,6.75a0.899,0.899 0 0 0 -0.864,-0.04c-0.084,-0.507 1.011,-1.215 0.357,-1.526z"/>
    <path id="svg_10" fill="#fad50a" d="m78.324,13.102c-2.534,-1.447 -5.396,-1.785 -8.087,-2.86c4.049,0.867 8.864,1.749 11.858,4.79c0.047,0.024 0.16,0.135 0.216,0.15c0.259,0.175 0.555,0.797 0.915,0.567c-6.281,-12.302 -25.361,-10.933 -34.44,-5.888c0.495,0.382 1.039,0.83 1.546,1.263c1.727,-1.403 8.73,-2.383 9.348,-2.287c-2.34,0.47 -6.216,1.882 -8.57,2.942l0.33,0.279c4.804,-1.696 12.117,-2.879 17.299,-1.631c-4.142,0.461 -11.526,0.398 -16.438,2.361c1.349,1.025 2.55,2.89 3.71,4.26c8.014,-3.924 12.637,-4.052 16.69,-3.539c0.39,0.217 -2.874,0.354 -2.082,0.594c0.88,0.204 2.532,-0.286 2.914,-0.336c0.248,-0.08 1.806,-0.028 2.298,0.065c1.874,0.457 0.117,0.696 -0.537,0.542a4.826,4.826 0 0 0 -0.967,0.02c-0.723,0.136 -1.597,0.296 -2.318,0.404c-0.194,0.033 -2.394,-0.026 -2.06,0.26c0.422,-0.028 2.273,0.308 2.75,0.252c0.288,-0.065 0.579,0.032 0.85,-0.115c0.135,-0.093 0.683,-0.16 0.707,0.07c-0.624,1.394 -2.52,0.348 -3.946,0.65c-1.271,0.094 -2.62,0.664 -2.849,0.465c4.17,-2.546 -5.96,1.237 -5.789,1.88a0.062,0.062 0 0 0 0.035,0c0.03,0.57 1.62,-0.26 1.942,-0.2c0.698,-0.053 1.64,-0.489 2.32,-0.649c0.51,0 0.71,0.256 1.218,0.143c1.114,-0.02 2.12,-0.5 3.194,-0.713c0.095,0 0.767,0.284 0.734,0.362c2.025,1.822 3.093,0.303 5.314,0.903c0.354,0.048 -0.065,0.278 -0.185,0.35c-1.172,0.827 -2.565,0.955 -3.922,1.054a1.224,1.224 0 0 0 -0.665,0.109c-0.447,-0.035 -0.863,0.216 -1.31,0.149c-1.271,0.026 -2.528,0.217 -3.67,0.8c-0.431,0.084 -0.921,0.153 -1.243,0.476c-0.328,0.266 -0.822,0.165 -1.111,0.464c-0.492,0.296 -4.205,1.083 -3.786,1.847l-0.022,0l0.022,0a0.217,0.217 0 0 1 0,0.05c6.132,-0.88 13.442,-5.218 21.176,-1.969c3.184,1.627 4.964,4.456 3.695,9.924c0.01,-0.026 0.149,-0.39 0.147,-0.405l-0.024,0.017c0.36,-1.276 0.69,-2.372 0.682,-3.663c0.831,-4.72 -2.739,-11.401 -7.889,-14.207zm-7.256,-4.618c1.124,0.253 3.186,0.63 3.859,1.343c-1.768,-0.02 -2.644,-0.787 -2.616,-0.767c-0.339,-0.104 -1.403,-0.485 -1.243,-0.576z"/>
    <path id="svg_11" fill="#f2940a" d="m51.131,11.826l-0.74,-0.614c1.764,-1.44 8.655,-2.36 9.353,-2.288c-1.038,0.21 -2.06,0.49 -3.059,0.84a74.962,74.962 0 0 0 -5.554,2.062zm35.79,9.918c-1.081,-8.049 -3.837,-15.114 -13.657,-17.71c6.073,1.468 6.53,2.225 7.321,2.749c-4.717,-4.358 -12.315,-5.873 -19.997,-4.569c4.479,-1.447 11.84,-1.27 16.444,1.576c-10.983,-6.776 -24.183,-3.846 -32.299,3.892c1.515,0.293 2.845,1.294 4.08,2.247c9.211,-5.007 28.219,-6.378 34.54,5.869c-0.363,0.228 -0.648,-0.389 -0.917,-0.565c-0.05,-0.015 -0.162,-0.125 -0.216,-0.15c-3.003,-3.018 -7.824,-3.91 -11.887,-4.766c2.711,1.078 5.567,1.406 8.107,2.846c6.627,3.799 9.52,11.498 7.227,17.77l0.023,-0.017a23.264,23.264 0 0 0 1.232,-9.17l-0.001,-0.002zm-22.33,-11.77c-4.202,0 -9.52,0.79 -13.1,2.156l0.839,0.707c4.277,-1.625 11.467,-2.037 14.985,-2.171c3.81,-0.116 -1.33,-0.68 -2.724,-0.692zm7.817,-0.834c-0.07,-0.037 0.88,0.754 2.622,0.763c-0.681,-0.712 -2.737,-1.078 -3.87,-1.337c-0.156,0.09 0.91,0.47 1.25,0.574l-0.002,0z"/>
   </g>
   <g id="svg_12" fill="#d2003c"/>
  </g>
 </g>
</svg>